#!OML:ASF H:\Terrain\Patient Classification 1\Animal2\Wednesday\Animal2.ASF
:FULLY-SPECIFIED
:DEGREES
4247
root 19.977 17.8092 -15.4029 185.522 -188.836 -179.534
lowerback -5.30778 -3.43265 4.15436
upperback -3.15214 -4.75846 5.93607
thorax -0.116594 -2.38079 3.55925
lowerneck -4.30339 2.26562 14.1404
upperneck -18.2986 2.52765 -4.10973
head -4.61536 0.524757 -3.68882
rclavicle -3.47873e-015 1.59028e-015
rhumerus -20.4062 28.3068 -43.5974
rradius 97.0737
rwrist -62.0164
rhand -26.953 3.5584
rfingers 7.12502
rthumb -0.374664 -26.421
lclavicle -3.47873e-015 1.59028e-015
lhumerus -34.8891 -24.9214 50.6441
lradius 103.247
lwrist 91.9383
lhand -11.4247 24.8514
lfingers 7.12502
lthumb 14.6114 54.3167
rfemur -11.5412 -6.07637 20.0558
rtibia 27.1597
rfoot -22.4861 2.62357
rtoes 32.8569
lfemur -10.0086 -2.11442 -19.1734
ltibia 23.472
lfoot -18.2235 4.43157
ltoes -29.5059
4248
root 19.9789 17.8062 -15.3976 185.438 -188.799 -179.306
lowerback -5.41352 -3.42828 3.8944
upperback -3.06572 -4.75655 5.87299
thorax 0.0481517 -2.37663 3.62652
lowerneck -4.05792 2.2626 13.9859
upperneck -18.5544 2.59464 -3.91446
head -4.735 0.548383 -3.61145
rclavicle -6.17723e-014 -2.06736e-014
rhumerus -19.6916 28.8354 -43.4554
rradius 96.8288
rwrist -62.1003
rhand -27.4328 3.88384
rfingers 7.12502
rthumb -0.838133 -26.0943
lclavicle -6.17723e-014 -2.06736e-014
lhumerus -34.2635 -25.0203 50.5218
lradius 103.363
lwrist 92.3774
lhand -12.2667 25.3737
lfingers 7.12502
lthumb 13.8 54.896
rfemur -11.4423 -6.21715 19.7655
rtibia 27.2865
rfoot -22.4909 2.8244
rtoes 33.1106
lfemur -9.75343 -2.14639 -19.4418
ltibia 23.3112
lfoot -18.1082 4.28572
ltoes -28.6685
4249
root 19.9806 17.8053 -15.3902 185.337 -188.857 -179.084
lowerback -5.48901 -3.45634 3.66952
upperback -3.0035 -4.79395 5.78297
thorax 0.167162 -2.39319 3.64746
lowerneck -3.98809 2.28361 13.9324
upperneck -18.6117 2.65279 -3.7926
head -4.76298 0.57198 -3.56724
rclavicle -6.02815e-014 7.4743e-014
rhumerus -19.0532 29.2584 -43.3817
rradius 96.6204
rwrist -62.1884
rhand -27.7571 4.25871
rfingers 7.12502
rthumb -1.15129 -25.7179
lclavicle -6.02815e-014 7.4743e-014
lhumerus -33.676 -25.1384 50.3219
lradius 103.572
lwrist 92.761
lhand -13.3405 25.3715
lfingers 7.12502
lthumb 12.765 54.9613
rfemur -11.318 -6.36415 19.4967
rtibia 27.4158
rfoot -22.4885 2.91375
rtoes 33.3778
lfemur -9.50844 -2.13019 -19.6855
ltibia 23.1656
lfoot -18.1042 4.24637
ltoes -28.6379
4250
root 19.9826 17.8043 -15.3885 185.248 -188.802 -179.019
lowerback -5.49728 -3.46686 3.59551
upperback -2.93676 -4.81006 5.74791
thorax 0.244672 -2.40048 3.64756
lowerneck -4.00032 2.3414 13.842
upperneck -18.7054 2.75207 -3.63914
head -4.78657 0.613947 -3.50733
rclavicle 4.52732e-014 -4.29375e-014
rhumerus -18.2531 29.6885 -43.2198
rradius 96.4895
rwrist -62.3017
rhand -27.9725 4.08499
rfingers 7.12502
rthumb -1.35931 -25.8904
lclavicle 4.52732e-014 -4.29375e-014
lhumerus -33.2208 -25.0692 50.089
lradius 103.895
lwrist 93.0109
lhand -14.4421 25.1001
lfingers 7.12502
lthumb 11.7028 54.7533
rfemur -11.2516 -6.53001 19.3976
rtibia 27.4978
rfoot -22.5056 3.06253
rtoes 33.2999
lfemur -9.33756 -2.08767 -19.7693
ltibia 23.0717
lfoot -18.1742 4.28315
ltoes -28.2743
4251
root 19.9865 17.8018 -15.3886 185.133 -188.693 -179.019
lowerback -5.42232 -3.44217 3.59877
upperback -2.90478 -4.77433 5.74514
thorax 0.234177 -2.38278 3.64848
lowerneck -3.87764 2.35625 13.6665
upperneck -18.8882 2.82189 -3.44751
head -4.86404 0.641952 -3.42483
rclavicle 1.80894e-014 2.06736e-014
rhumerus -17.5716 30.1265 -43.0376
rradius 96.5222
rwrist -62.343
rhand -28.0607 3.85013
rfingers 7.12502
rthumb -1.44454 -26.1247
lclavicle 1.80894e-014 2.06736e-014
lhumerus -32.9265 -25.0371 49.8844
lradius 104.421
lwrist 93.2716
lhand -15.4625 25.0958
lfingers 7.12502
lthumb 10.7186 54.8024
rfemur -11.1237 -6.72565 19.3449
rtibia 27.506
rfoot -22.5525 3.29188
rtoes 32.8068
lfemur -9.16953 -2.00792 -19.8006
ltibia 23.0527
lfoot -18.1537 4.21539
ltoes -28.116
4252
root 19.9887 17.8014 -15.3876 185.089 -188.658 -178.999
lowerback -5.45382 -3.39603 3.58946
upperback -2.90104 -4.71479 5.72768
thorax 0.252624 -2.35282 3.63669
lowerneck -3.73139 2.34289 13.5923
upperneck -19.054 2.8377 -3.39797
head -4.94017 0.64587 -3.40295
rclavicle 2.26118e-014 -3.02153e-014
rhumerus -17.0774 30.4419 -42.8948
rradius 96.6724
rwrist -62.2499
rhand -28.3383 4.62956
rfingers 7.12502
rthumb -1.71265 -25.3433
lclavicle 2.26118e-014 -3.02153e-014
lhumerus -32.4695 -25.0856 49.6986
lradius 104.952
lwrist 93.4524
lhand -15.8769 25.7013
lfingers 7.12502
lthumb 10.3189 55.4282
rfemur -11.0334 -6.70692 19.3007
rtibia 27.4648
rfoot -22.5237 3.33769
rtoes 32.51
lfemur -9.12088 -1.93691 -19.8385
ltibia 23.0847
lfoot -18.1091 4.19175
ltoes -28.836
4253
root 19.9877 17.8025 -15.389 185.064 -188.634 -179.07
lowerback -5.53534 -3.35829 3.6308
upperback -2.89244 -4.67273 5.72531
thorax 0.30172 -2.33169 3.60819
lowerneck -3.58413 2.31005 13.7573
upperneck -19.1205 2.79466 -3.56795
head -4.98303 0.621674 -3.48656
rclavicle 3.28989e-014 -4.6118e-014
rhumerus -16.559 30.6866 -42.7658
rradius 96.8349
rwrist -62.0772
rhand -28.6394 6.15919
rfingers 7.12502
rthumb -2.00341 -23.8112
lclavicle 3.28989e-014 -4.6118e-014
lhumerus -31.8299 -24.9361 49.3864
lradius 105.545
lwrist 93.6229
lhand -16.2968 27.1571
lfingers 7.12502
lthumb 9.91384 56.9036
rfemur -10.9991 -6.56428 19.3915
rtibia 27.4021
rfoot -22.474 3.15556
rtoes 32.2132
lfemur -9.13322 -1.96412 -19.7555
ltibia 23.1377
lfoot -18.1006 4.07939
ltoes -28.0131
4254
root 19.9871 17.8038 -15.3919 185.01 -188.583 -179.192
lowerback -5.52444 -3.30676 3.70516
upperback -2.91732 -4.60482 5.73063
thorax 0.261835 -2.29841 3.57824
lowerneck -3.22269 2.21134 13.889
upperneck -19.4227 2.722 -3.60205
head -5.14241 0.568475 -3.52895
rclavicle -4.67144e-015 3.81667e-014
rhumerus -16.1467 30.8895 -42.658
rradius 97.0935
rwrist -61.906
rhand -28.4244 7.00348
rfingers 7.12502
rthumb -1.79578 -22.9687
lclavicle -4.67144e-015 3.81667e-014
lhumerus -31.262 -24.6345 48.9974
lradius 106.263
lwrist 93.8223
lhand -16.9601 28.9151
lfingers 7.12502
lthumb 9.27386 58.6911
rfemur -10.9623 -6.41147 19.5204
rtibia 27.3308
rfoot -22.4881 3.19333
rtoes 32.8498
lfemur -9.1185 -2.07419 -19.6206
ltibia 23.2004
lfoot -18.1037 4.01441
ltoes -26.5736
4255
root 19.9883 17.802 -15.3924 184.964 -188.555 -179.264
lowerback -5.56836 -3.26682 3.76688
upperback -2.89133 -4.55933 5.72118
thorax 0.305841 -2.27575 3.53307
lowerneck -3.02559 2.15171 13.9731
upperneck -19.739 2.6806 -3.60844
head -5.27814 0.530321 -3.55336
rclavicle 2.43014e-014 1.59028e-015
rhumerus -15.6914 30.9661 -42.5871
rradius 97.4144
rwrist -61.6674
rhand -27.8238 7.36102
rfingers 7.12502
rthumb -1.21569 -22.6153
lclavicle 2.43014e-014 1.59028e-015
lhumerus -30.7184 -24.3657 48.6762
lradius 106.831
lwrist 93.6955
lhand -17.405 29.586
lfingers 7.12502
lthumb 8.84457 59.3807
rfemur -10.9053 -6.30798 19.5891
rtibia 27.2909
rfoot -22.5468 3.3389
rtoes 33.4747
lfemur -9.08593 -2.17979 -19.5524
ltibia 23.2328
lfoot -18.1461 4.27135
ltoes -27.1897
4256
root 19.9894 17.8003 -15.3922 184.941 -188.533 -179.316
lowerback -5.7162 -3.23686 3.80045
upperback -2.77814 -4.54033 5.73765
thorax 0.503228 -2.26488 3.51907
lowerneck -3.21131 2.1539 14.0776
upperneck -19.7846 2.63011 -3.78017
head -5.26102 0.505757 -3.62256
rclavicle -4.02539e-014 3.02153e-014
rhumerus -15.0234 30.9986 -42.4257
rradius 97.7239
rwrist -61.3719
rhand -27.1489 7.91204
rfingers 7.12502
rthumb -0.563907 -22.067
lclavicle -4.02539e-014 3.02153e-014
lhumerus -30.2131 -24.0985 48.4587
lradius 107.307
lwrist 93.1833
lhand -17.1487 28.9783
lfingers 7.12502
lthumb 9.09187 58.7624
rfemur -10.8768 -6.34546 19.6513
rtibia 27.2815
rfoot -22.5055 3.30947
rtoes 32.9256
lfemur -9.06377 -2.23958 -19.5083
ltibia 23.2362
lfoot -18.1365 4.52505
ltoes -28.1841
4257
root 19.9896 17.8015 -15.3911 184.913 -188.486 -179.311
lowerback -5.74619 -3.18633 3.74774
upperback -2.76859 -4.47363 5.7496
thorax 0.532555 -2.23097 3.56268
lowerneck -3.22136 2.13467 14.0082
upperneck -19.8186 2.60614 -3.75828
head -5.27297 0.496386 -3.60427
rclavicle 4.90501e-014 -2.38542e-014
rhumerus -14.465 31.216 -42.2002
rradius 98.0838
rwrist -61.0812
rhand -25.9456 8.45611
rfingers 7.12502
rthumb 0.598324 -21.5228
lclavicle 4.90501e-014 -2.38542e-014
lhumerus -29.9903 -23.9879 48.3673
lradius 107.796
lwrist 92.2921
lhand -16.1489 27.9601
lfingers 7.12502
lthumb 10.0565 57.6998
rfemur -10.8582 -6.41186 19.6371
rtibia 27.2666
rfoot -22.3772 3.36975
rtoes 32.8895
lfemur -9.03239 -2.25362 -19.527
ltibia 23.2501
lfoot -18.0512 4.60845
ltoes -28.191
4258
root 19.9896 17.8008 -15.3899 184.851 -188.462 -179.338
lowerback -5.7016 -3.1576 3.73493
upperback -2.8376 -4.42636 5.7441
thorax 0.435191 -2.20793 3.57235
lowerneck -3.08384 2.12863 14.0169
upperneck -19.7464 2.61704 -3.77162
head -5.27129 0.50624 -3.61065
rclavicle 2.71838e-014 -3.49861e-014
rhumerus -14.058 31.3893 -42.174
rradius 98.4884
rwrist -60.5379
rhand -24.0381 8.98765
rfingers 7.12502
rthumb 2.44058 -20.9781
lclavicle 2.71838e-014 -3.49861e-014
lhumerus -29.8098 -24.0366 48.2343
lradius 108.384
lwrist 91.3917
lhand -15.6506 27.0612
lfingers 7.12502
lthumb 10.5372 56.7771
rfemur -10.7881 -6.3406 19.6533
rtibia 27.2447
rfoot -22.3468 3.39095
rtoes 33.2024
lfemur -8.9653 -2.33619 -19.5055
ltibia 23.2649
lfoot -18.0311 4.63401
ltoes -27.8673
4259
root 19.9896 17.8019 -15.3896 184.828 -188.478 -179.389
lowerback -5.73378 -3.12916 3.76885
upperback -2.88874 -4.38835 5.72147
thorax 0.394461 -2.18941 3.53239
lowerneck -2.98207 2.10949 14.2177
upperneck -19.6571 2.58072 -3.9609
head -5.25701 0.490931 -3.7027
rclavicle -2.62396e-014 3.97569e-014
rhumerus -13.8786 31.2634 -42.3109
rradius 99.041
rwrist -59.8116
rhand -24.8243 10.2676
rfingers 7.12502
rthumb 1.68127 -19.7055
lclavicle -2.62396e-014 3.97569e-014
lhumerus -29.4648 -23.9012 48.0138
lradius 109.1
lwrist 90.6908
lhand -15.3093 26.8026
lfingers 7.12502
lthumb 10.8665 56.5014
rfemur -10.7385 -6.26032 19.7133
rtibia 27.2251
rfoot -22.4769 3.21419
rtoes 32.7297
lfemur -8.93913 -2.45971 -19.4475
ltibia 23.265
lfoot -18.1009 4.67801
ltoes -27.8149
4260
root 19.9893 17.8056 -15.3885 184.81 -188.488 -179.389
lowerback -5.73818 -3.08073 3.74197
upperback -2.9491 -4.31811 5.68781
thorax 0.33145 -2.15461 3.51862
lowerneck -2.74416 2.0407 14.2384
upperneck -19.7538 2.53391 -3.93298
head -5.33202 0.462868 -3.70145
rclavicle -1.38155e-014 3.65764e-014
rhumerus -13.8318 31.2218 -42.3051
rradius 99.7033
rwrist -59.3512
rhand -25.0701 11.3354
rfingers 7.12502
rthumb 1.4439 -18.6394
lclavicle -1.38155e-014 3.65764e-014
lhumerus -29.0431 -23.6075 47.7981
lradius 109.682
lwrist 89.8727
lhand -14.4739 26.9439
lfingers 7.12502
lthumb 11.6721 56.5988
rfemur -10.7007 -6.25767 19.7096
rtibia 27.2113
rfoot -22.6009 3.19179
rtoes 32.587
lfemur -8.92226 -2.48612 -19.4486
ltibia 23.2588
lfoot -18.1097 4.78446
ltoes -28.1471
4261
root 19.9899 17.8062 -15.388 184.742 -188.538 -179.418
lowerback -5.71236 -3.07085 3.75726
upperback -2.96294 -4.30251 5.67576
thorax 0.300151 -2.14711 3.50058
lowerneck -2.48842 2.0091 14.0409
upperneck -20.0009 2.5691 -3.70653
head -5.45654 0.47093 -3.60649
rclavicle -1.25234e-014 -3.49861e-014
rhumerus -13.5057 31.2976 -42.239
rradius 100.253
rwrist -58.991
rhand -24.9411 12.0282
rfingers 7.12502
rthumb 1.56847 -17.9458
lclavicle -1.25234e-014 -3.49861e-014
lhumerus -28.4962 -23.382 47.5691
lradius 110.126
lwrist 88.8713
lhand -13.4892 26.7741
lfingers 7.12502
lthumb 12.6216 56.3728
rfemur -10.6217 -6.39178 19.7193
rtibia 27.1864
rfoot -22.5144 3.48013
rtoes 33.1345
lfemur -8.87428 -2.44976 -19.4148
ltibia 23.2713
lfoot -18.1213 4.75296
ltoes -28.421
